<?xml version="1.0" encoding="UTF-8"?>
<!DOCTYPE svg PUBLIC "-//W3C//DTD SVG 1.1//EN" "http://www.w3.org/Graphics/SVG/1.1/DTD/svg11.dtd">
<!-- Creator: CorelDRAW X7 -->
<svg xmlns="http://www.w3.org/2000/svg" xml:space="preserve" width="25.4484mm" height="12.4096mm" version="1.1" style="shape-rendering:geometricPrecision; text-rendering:geometricPrecision; image-rendering:optimizeQuality; fill-rule:evenodd; clip-rule:evenodd"
viewBox="0 0 707 345"
 xmlns:xlink="http://www.w3.org/1999/xlink">
 <defs>
  <style type="text/css">
   <![CDATA[
    .str0 {stroke:#2B2A29;stroke-width:4.90012}
    .fil2 {fill:#FDEB04}
    .fil0 {fill:#2A2928}
    .fil1 {fill:#3A3185}
    .fil3 {fill:#E32024;fill-rule:nonzero}
   ]]>
  </style>
 </defs>
 <g id="Warstwa_x0020_1">
  <metadata id="CorelCorpID_0Corel-Layer"/>
  <rect class="fil0 str0" x="2" y="118" width="702" height="224"/>
  <path class="fil1" d="M2 342c64,-228 97,-342 97,-342 89,0 134,0 134,0 121,13 82,173 82,173 -52,157 -163,168 -169,169 -96,0 -144,0 -144,0z"/>
  <path class="fil2" d="M2 342c64,-226 97,-342 97,-342 143,114 217,172 217,172 -210,112 -314,170 -314,170z"/>
  <path class="fil3" d="M364 320c-1,-3 -1,-7 -1,-12 -7,10 -16,15 -26,14 -9,0 -17,-4 -23,-11 -6,-7 -9,-16 -9,-26 1,-13 6,-24 15,-31 9,-8 22,-11 38,-11l11 0 1 -7 0 -6c0,-8 -3,-11 -9,-12 -7,0 -11,5 -13,14l-32 1c0,-9 3,-16 7,-23 4,-6 10,-11 18,-14 7,-3 15,-5 23,-5 8,0 15,2 21,6 7,4 11,9 14,16 3,7 4,14 3,23l-7 60 -1 7c0,6 0,11 2,15l0 2 -32 0zm-18 -25c6,0 12,-4 17,-11l4 -20 -9 0c-5,0 -9,2 -13,5 -4,4 -6,8 -7,14 0,4 0,6 2,8 1,2 3,3 6,4zm65 25l14 -99 -14 0 3 -27 15 -1 2 -11c1,-13 6,-24 13,-32 8,-8 19,-12 31,-12 3,0 9,1 16,2l-2 30c-3,-1 -6,-2 -8,-2 -5,0 -9,2 -12,4 -3,3 -5,7 -6,11l-1 11 20 0 -4 27 -20 0 -15 99 -32 0zm108 -127l-2 16c8,-12 18,-18 30,-18 10,0 17,5 22,13 5,8 7,21 6,36l-12 80 -32 0 11 -80c0,-3 1,-5 0,-8 0,-7 -4,-11 -11,-11 -5,0 -10,3 -15,9l-13 90 -33 0 19 -127 30 0zm111 129c-10,0 -18,-2 -26,-8 -7,-5 -13,-12 -16,-22 -4,-9 -6,-19 -5,-31l0 -3c2,-21 8,-37 19,-49 10,-12 23,-18 38,-18 9,0 17,3 23,8 7,6 11,13 14,23 3,9 4,19 3,31l-1 16 -64 0c0,7 2,12 5,16 3,4 7,7 13,7 9,0 18,-4 25,-13l14 21c-4,7 -10,12 -17,16 -7,4 -15,6 -23,6l-2 0zm8 -100c-5,-1 -9,1 -12,5 -4,3 -6,9 -9,18l32 0 1 -4c0,-3 0,-5 0,-7 -1,-8 -5,-12 -12,-12z"/>
 </g>
</svg>
